<svg width="72" height="73" viewBox="0 0 72 73" fill="none" xmlns="http://www.w3.org/2000/svg">
<path d="M3.39153 0.97995H0.941223V3.43029H3.39153V0.97995Z" fill="black"/>
<path d="M5.84183 0.97995H3.39153V3.43029H5.84183V0.97995Z" fill="black"/>
<path d="M8.29213 0.97995H5.84183V3.43029H8.29213V0.97995Z" fill="black"/>
<path d="M10.7424 0.97995H8.29213V3.43029H10.7424V0.97995Z" fill="black"/>
<path d="M13.1927 0.97995H10.7424V3.43029H13.1927V0.97995Z" fill="black"/>
<path d="M15.643 0.97995H13.1927V3.43029H15.643V0.97995Z" fill="black"/>
<path d="M18.0933 0.97995H15.643V3.43029H18.0933V0.97995Z" fill="black"/>
<path d="M22.9939 0.97995H20.5436V3.43029H22.9939V0.97995Z" fill="black"/>
<path d="M25.4443 0.97995H22.9939V3.43029H25.4443V0.97995Z" fill="black"/>
<path d="M27.8946 0.97995H25.4443V3.43029H27.8946V0.97995Z" fill="black"/>
<path d="M32.7952 0.97995H30.3449V3.43029H32.7952V0.97995Z" fill="black"/>
<path d="M35.2455 0.97995H32.7952V3.43029H35.2455V0.97995Z" fill="black"/>
<path d="M40.1461 0.97995H37.6958V3.43029H40.1461V0.97995Z" fill="black"/>
<path d="M45.0467 0.97995H42.5964V3.43029H45.0467V0.97995Z" fill="black"/>
<path d="M47.497 0.97995H45.0467V3.43029H47.497V0.97995Z" fill="black"/>
<path d="M49.9473 0.97995H47.497V3.43029H49.9473V0.97995Z" fill="black"/>
<path d="M52.3976 0.97995H49.9473V3.43029H52.3976V0.97995Z" fill="black"/>
<path d="M57.2982 0.97995H54.8479V3.43029H57.2982V0.97995Z" fill="black"/>
<path d="M59.7485 0.97995H57.2982V3.43029H59.7485V0.97995Z" fill="black"/>
<path d="M62.1988 0.97995H59.7485V3.43029H62.1988V0.97995Z" fill="black"/>
<path d="M64.6491 0.97995H62.1988V3.43029H64.6491V0.97995Z" fill="black"/>
<path d="M67.0994 0.97995H64.6491V3.43029H67.0994V0.97995Z" fill="black"/>
<path d="M69.5497 0.97995H67.0994V3.43029H69.5497V0.97995Z" fill="black"/>
<path d="M72 0.97995H69.5497V3.43029H72V0.97995Z" fill="black"/>
<path d="M3.39153 3.43029H0.941223V5.88064H3.39153V3.43029Z" fill="black"/>
<path d="M18.0933 3.43029H15.643V5.88064H18.0933V3.43029Z" fill="black"/>
<path d="M27.8946 3.43029H25.4443V5.88064H27.8946V3.43029Z" fill="black"/>
<path d="M35.2455 3.43029H32.7952V5.88064H35.2455V3.43029Z" fill="black"/>
<path d="M40.1461 3.43029H37.6958V5.88064H40.1461V3.43029Z" fill="black"/>
<path d="M42.5964 3.43029H40.1461V5.88064H42.5964V3.43029Z" fill="black"/>
<path d="M45.0467 3.43029H42.5964V5.88064H45.0467V3.43029Z" fill="black"/>
<path d="M57.2982 3.43029H54.8479V5.88064H57.2982V3.43029Z" fill="black"/>
<path d="M72 3.43029H69.5497V5.88064H72V3.43029Z" fill="black"/>
<path d="M3.39153 5.88064H0.941223V8.33098H3.39153V5.88064Z" fill="black"/>
<path d="M8.29213 5.88064H5.84183V8.33098H8.29213V5.88064Z" fill="black"/>
<path d="M10.7424 5.88064H8.29213V8.33098H10.7424V5.88064Z" fill="black"/>
<path d="M13.1927 5.88064H10.7424V8.33098H13.1927V5.88064Z" fill="black"/>
<path d="M18.0933 5.88064H15.643V8.33098H18.0933V5.88064Z" fill="black"/>
<path d="M22.9939 5.88064H20.5436V8.33098H22.9939V5.88064Z" fill="black"/>
<path d="M25.4443 5.88064H22.9939V8.33098H25.4443V5.88064Z" fill="black"/>
<path d="M30.3449 5.88064H27.8946V8.33098H30.3449V5.88064Z" fill="black"/>
<path d="M32.7952 5.88064H30.3449V8.33098H32.7952V5.88064Z" fill="black"/>
<path d="M37.6958 5.88064H35.2455V8.33098H37.6958V5.88064Z" fill="black"/>
<path d="M42.5964 5.88064H40.1461V8.33098H42.5964V5.88064Z" fill="black"/>
<path d="M45.0467 5.88064H42.5964V8.33098H45.0467V5.88064Z" fill="black"/>
<path d="M52.3976 5.88064H49.9473V8.33098H52.3976V5.88064Z" fill="black"/>
<path d="M57.2982 5.88064H54.8479V8.33098H57.2982V5.88064Z" fill="black"/>
<path d="M62.1988 5.88064H59.7485V8.33098H62.1988V5.88064Z" fill="black"/>
<path d="M64.6491 5.88064H62.1988V8.33098H64.6491V5.88064Z" fill="black"/>
<path d="M67.0994 5.88064H64.6491V8.33098H67.0994V5.88064Z" fill="black"/>
<path d="M72 5.88064H69.5497V8.33098H72V5.88064Z" fill="black"/>
<path d="M3.39153 8.33098H0.941223V10.7813H3.39153V8.33098Z" fill="black"/>
<path d="M8.29213 8.33098H5.84183V10.7813H8.29213V8.33098Z" fill="black"/>
<path d="M10.7424 8.33098H8.29213V10.7813H10.7424V8.33098Z" fill="black"/>
<path d="M13.1927 8.33098H10.7424V10.7813H13.1927V8.33098Z" fill="black"/>
<path d="M18.0933 8.33098H15.643V10.7813H18.0933V8.33098Z" fill="black"/>
<path d="M22.9939 8.33098H20.5436V10.7813H22.9939V8.33098Z" fill="black"/>
<path d="M25.4443 8.33098H22.9939V10.7813H25.4443V8.33098Z" fill="black"/>
<path d="M32.7952 8.33098H30.3449V10.7813H32.7952V8.33098Z" fill="black"/>
<path d="M35.2455 8.33098H32.7952V10.7813H35.2455V8.33098Z" fill="black"/>
<path d="M42.5964 8.33098H40.1461V10.7813H42.5964V8.33098Z" fill="black"/>
<path d="M45.0467 8.33098H42.5964V10.7813H45.0467V8.33098Z" fill="black"/>
<path d="M47.497 8.33098H45.0467V10.7813H47.497V8.33098Z" fill="black"/>
<path d="M49.9473 8.33098H47.497V10.7813H49.9473V8.33098Z" fill="black"/>
<path d="M57.2982 8.33098H54.8479V10.7813H57.2982V8.33098Z" fill="black"/>
<path d="M62.1988 8.33098H59.7485V10.7813H62.1988V8.33098Z" fill="black"/>
<path d="M64.6491 8.33098H62.1988V10.7813H64.6491V8.33098Z" fill="black"/>
<path d="M67.0994 8.33098H64.6491V10.7813H67.0994V8.33098Z" fill="black"/>
<path d="M72 8.33098H69.5497V10.7813H72V8.33098Z" fill="black"/>
<path d="M3.39153 10.7813H0.941223V13.2317H3.39153V10.7813Z" fill="black"/>
<path d="M8.29213 10.7813H5.84183V13.2317H8.29213V10.7813Z" fill="black"/>
<path d="M10.7424 10.7813H8.29213V13.2317H10.7424V10.7813Z" fill="black"/>
<path d="M13.1927 10.7813H10.7424V13.2317H13.1927V10.7813Z" fill="black"/>
<path d="M18.0933 10.7813H15.643V13.2317H18.0933V10.7813Z" fill="black"/>
<path d="M22.9939 10.7813H20.5436V13.2317H22.9939V10.7813Z" fill="black"/>
<path d="M25.4443 10.7813H22.9939V13.2317H25.4443V10.7813Z" fill="black"/>
<path d="M32.7952 10.7813H30.3449V13.2317H32.7952V10.7813Z" fill="black"/>
<path d="M35.2455 10.7813H32.7952V13.2317H35.2455V10.7813Z" fill="black"/>
<path d="M37.6958 10.7813H35.2455V13.2317H37.6958V10.7813Z" fill="black"/>
<path d="M42.5964 10.7813H40.1461V13.2317H42.5964V10.7813Z" fill="black"/>
<path d="M45.0467 10.7813H42.5964V13.2317H45.0467V10.7813Z" fill="black"/>
<path d="M47.497 10.7813H45.0467V13.2317H47.497V10.7813Z" fill="black"/>
<path d="M49.9473 10.7813H47.497V13.2317H49.9473V10.7813Z" fill="black"/>
<path d="M52.3976 10.7813H49.9473V13.2317H52.3976V10.7813Z" fill="black"/>
<path d="M57.2982 10.7813H54.8479V13.2317H57.2982V10.7813Z" fill="black"/>
<path d="M62.1988 10.7813H59.7485V13.2317H62.1988V10.7813Z" fill="black"/>
<path d="M64.6491 10.7813H62.1988V13.2317H64.6491V10.7813Z" fill="black"/>
<path d="M67.0994 10.7813H64.6491V13.2317H67.0994V10.7813Z" fill="black"/>
<path d="M72 10.7813H69.5497V13.2317H72V10.7813Z" fill="black"/>
<path d="M3.39153 13.2317H0.941223V15.682H3.39153V13.2317Z" fill="black"/>
<path d="M18.0933 13.2317H15.643V15.682H18.0933V13.2317Z" fill="black"/>
<path d="M22.9939 13.2317H20.5436V15.682H22.9939V13.2317Z" fill="black"/>
<path d="M30.3449 13.2317H27.8946V15.682H30.3449V13.2317Z" fill="black"/>
<path d="M32.7952 13.2317H30.3449V15.682H32.7952V13.2317Z" fill="black"/>
<path d="M35.2455 13.2317H32.7952V15.682H35.2455V13.2317Z" fill="black"/>
<path d="M37.6958 13.2317H35.2455V15.682H37.6958V13.2317Z" fill="black"/>
<path d="M40.1461 13.2317H37.6958V15.682H40.1461V13.2317Z" fill="black"/>
<path d="M45.0467 13.2317H42.5964V15.682H45.0467V13.2317Z" fill="black"/>
<path d="M49.9473 13.2317H47.497V15.682H49.9473V13.2317Z" fill="black"/>
<path d="M52.3976 13.2317H49.9473V15.682H52.3976V13.2317Z" fill="black"/>
<path d="M57.2982 13.2317H54.8479V15.682H57.2982V13.2317Z" fill="black"/>
<path d="M72 13.2317H69.5497V15.682H72V13.2317Z" fill="black"/>
<path d="M3.39153 15.682H0.941223V18.1324H3.39153V15.682Z" fill="black"/>
<path d="M5.84183 15.682H3.39153V18.1324H5.84183V15.682Z" fill="black"/>
<path d="M8.29213 15.682H5.84183V18.1324H8.29213V15.682Z" fill="black"/>
<path d="M10.7424 15.682H8.29213V18.1324H10.7424V15.682Z" fill="black"/>
<path d="M13.1927 15.682H10.7424V18.1324H13.1927V15.682Z" fill="black"/>
<path d="M15.643 15.682H13.1927V18.1324H15.643V15.682Z" fill="black"/>
<path d="M18.0933 15.682H15.643V18.1324H18.0933V15.682Z" fill="black"/>
<path d="M22.9939 15.682H20.5436V18.1324H22.9939V15.682Z" fill="black"/>
<path d="M27.8946 15.682H25.4443V18.1324H27.8946V15.682Z" fill="black"/>
<path d="M32.7952 15.682H30.3449V18.1324H32.7952V15.682Z" fill="black"/>
<path d="M37.6958 15.682H35.2455V18.1324H37.6958V15.682Z" fill="black"/>
<path d="M42.5964 15.682H40.1461V18.1324H42.5964V15.682Z" fill="black"/>
<path d="M47.497 15.682H45.0467V18.1324H47.497V15.682Z" fill="black"/>
<path d="M52.3976 15.682H49.9473V18.1324H52.3976V15.682Z" fill="black"/>
<path d="M57.2982 15.682H54.8479V18.1324H57.2982V15.682Z" fill="black"/>
<path d="M59.7485 15.682H57.2982V18.1324H59.7485V15.682Z" fill="black"/>
<path d="M62.1988 15.682H59.7485V18.1324H62.1988V15.682Z" fill="black"/>
<path d="M64.6491 15.682H62.1988V18.1324H64.6491V15.682Z" fill="black"/>
<path d="M67.0994 15.682H64.6491V18.1324H67.0994V15.682Z" fill="black"/>
<path d="M69.5497 15.682H67.0994V18.1324H69.5497V15.682Z" fill="black"/>
<path d="M72 15.682H69.5497V18.1324H72V15.682Z" fill="black"/>
<path d="M25.4443 18.1324H22.9939V20.5827H25.4443V18.1324Z" fill="black"/>
<path d="M27.8946 18.1324H25.4443V20.5827H27.8946V18.1324Z" fill="black"/>
<path d="M35.2455 18.1324H32.7952V20.5827H35.2455V18.1324Z" fill="black"/>
<path d="M42.5964 18.1324H40.1461V20.5827H42.5964V18.1324Z" fill="black"/>
<path d="M47.497 18.1324H45.0467V20.5827H47.497V18.1324Z" fill="black"/>
<path d="M52.3976 18.1324H49.9473V20.5827H52.3976V18.1324Z" fill="black"/>
<path d="M8.29213 20.5827H5.84183V23.0331H8.29213V20.5827Z" fill="black"/>
<path d="M10.7424 20.5827H8.29213V23.0331H10.7424V20.5827Z" fill="black"/>
<path d="M13.1927 20.5827H10.7424V23.0331H13.1927V20.5827Z" fill="black"/>
<path d="M15.643 20.5827H13.1927V23.0331H15.643V20.5827Z" fill="black"/>
<path d="M18.0933 20.5827H15.643V23.0331H18.0933V20.5827Z" fill="black"/>
<path d="M20.5436 20.5827H18.0933V23.0331H20.5436V20.5827Z" fill="black"/>
<path d="M25.4443 20.5827H22.9939V23.0331H25.4443V20.5827Z" fill="black"/>
<path d="M27.8946 20.5827H25.4443V23.0331H27.8946V20.5827Z" fill="black"/>
<path d="M30.3449 20.5827H27.8946V23.0331H30.3449V20.5827Z" fill="black"/>
<path d="M32.7952 20.5827H30.3449V23.0331H32.7952V20.5827Z" fill="black"/>
<path d="M42.5964 20.5827H40.1461V23.0331H42.5964V20.5827Z" fill="black"/>
<path d="M49.9473 20.5827H47.497V23.0331H49.9473V20.5827Z" fill="black"/>
<path d="M54.8479 20.5827H52.3976V23.0331H54.8479V20.5827Z" fill="black"/>
<path d="M59.7485 20.5827H57.2982V23.0331H59.7485V20.5827Z" fill="black"/>
<path d="M62.1988 20.5827H59.7485V23.0331H62.1988V20.5827Z" fill="black"/>
<path d="M64.6491 20.5827H62.1988V23.0331H64.6491V20.5827Z" fill="black"/>
<path d="M67.0994 20.5827H64.6491V23.0331H67.0994V20.5827Z" fill="black"/>
<path d="M72 20.5827H69.5497V23.0331H72V20.5827Z" fill="black"/>
<path d="M3.39153 23.0331H0.941223V25.4834H3.39153V23.0331Z" fill="black"/>
<path d="M5.84183 23.0331H3.39153V25.4834H5.84183V23.0331Z" fill="black"/>
<path d="M8.29213 23.0331H5.84183V25.4834H8.29213V23.0331Z" fill="black"/>
<path d="M10.7424 23.0331H8.29213V25.4834H10.7424V23.0331Z" fill="black"/>
<path d="M13.1927 23.0331H10.7424V25.4834H13.1927V23.0331Z" fill="black"/>
<path d="M15.643 23.0331H13.1927V25.4834H15.643V23.0331Z" fill="black"/>
<path d="M25.4443 23.0331H22.9939V25.4834H25.4443V23.0331Z" fill="black"/>
<path d="M27.8946 23.0331H25.4443V25.4834H27.8946V23.0331Z" fill="black"/>
<path d="M37.6958 23.0331H35.2455V25.4834H37.6958V23.0331Z" fill="black"/>
<path d="M42.5964 23.0331H40.1461V25.4834H42.5964V23.0331Z" fill="black"/>
<path d="M45.0467 23.0331H42.5964V25.4834H45.0467V23.0331Z" fill="black"/>
<path d="M49.9473 23.0331H47.497V25.4834H49.9473V23.0331Z" fill="black"/>
<path d="M54.8479 23.0331H52.3976V25.4834H54.8479V23.0331Z" fill="black"/>
<path d="M59.7485 23.0331H57.2982V25.4834H59.7485V23.0331Z" fill="black"/>
<path d="M64.6491 23.0331H62.1988V25.4834H64.6491V23.0331Z" fill="black"/>
<path d="M3.39153 25.4834H0.941223V27.9337H3.39153V25.4834Z" fill="black"/>
<path d="M5.84183 25.4834H3.39153V27.9337H5.84183V25.4834Z" fill="black"/>
<path d="M8.29213 25.4834H5.84183V27.9337H8.29213V25.4834Z" fill="black"/>
<path d="M10.7424 25.4834H8.29213V27.9337H10.7424V25.4834Z" fill="black"/>
<path d="M18.0933 25.4834H15.643V27.9337H18.0933V25.4834Z" fill="black"/>
<path d="M20.5436 25.4834H18.0933V27.9337H20.5436V25.4834Z" fill="black"/>
<path d="M22.9939 25.4834H20.5436V27.9337H22.9939V25.4834Z" fill="black"/>
<path d="M25.4443 25.4834H22.9939V27.9337H25.4443V25.4834Z" fill="black"/>
<path d="M32.7952 25.4834H30.3449V27.9337H32.7952V25.4834Z" fill="black"/>
<path d="M37.6958 25.4834H35.2455V27.9337H37.6958V25.4834Z" fill="black"/>
<path d="M40.1461 25.4834H37.6958V27.9337H40.1461V25.4834Z" fill="black"/>
<path d="M45.0467 25.4834H42.5964V27.9337H45.0467V25.4834Z" fill="black"/>
<path d="M49.9473 25.4834H47.497V27.9337H49.9473V25.4834Z" fill="black"/>
<path d="M52.3976 25.4834H49.9473V27.9337H52.3976V25.4834Z" fill="black"/>
<path d="M54.8479 25.4834H52.3976V27.9337H54.8479V25.4834Z" fill="black"/>
<path d="M57.2982 25.4834H54.8479V27.9337H57.2982V25.4834Z" fill="black"/>
<path d="M59.7485 25.4834H57.2982V27.9337H59.7485V25.4834Z" fill="black"/>
<path d="M62.1988 25.4834H59.7485V27.9337H62.1988V25.4834Z" fill="black"/>
<path d="M64.6491 25.4834H62.1988V27.9337H64.6491V25.4834Z" fill="black"/>
<path d="M69.5497 25.4834H67.0994V27.9337H69.5497V25.4834Z" fill="black"/>
<path d="M13.1927 27.9337H10.7424V30.3841H13.1927V27.9337Z" fill="black"/>
<path d="M15.643 27.9337H13.1927V30.3841H15.643V27.9337Z" fill="black"/>
<path d="M22.9939 27.9337H20.5436V30.3841H22.9939V27.9337Z" fill="black"/>
<path d="M27.8946 27.9337H25.4443V30.3841H27.8946V27.9337Z" fill="black"/>
<path d="M37.6958 27.9337H35.2455V30.3841H37.6958V27.9337Z" fill="black"/>
<path d="M40.1461 27.9337H37.6958V30.3841H40.1461V27.9337Z" fill="black"/>
<path d="M45.0467 27.9337H42.5964V30.3841H45.0467V27.9337Z" fill="black"/>
<path d="M47.497 27.9337H45.0467V30.3841H47.497V27.9337Z" fill="black"/>
<path d="M49.9473 27.9337H47.497V30.3841H49.9473V27.9337Z" fill="black"/>
<path d="M52.3976 27.9337H49.9473V30.3841H52.3976V27.9337Z" fill="black"/>
<path d="M59.7485 27.9337H57.2982V30.3841H59.7485V27.9337Z" fill="black"/>
<path d="M62.1988 27.9337H59.7485V30.3841H62.1988V27.9337Z" fill="black"/>
<path d="M69.5497 27.9337H67.0994V30.3841H69.5497V27.9337Z" fill="black"/>
<path d="M72 27.9337H69.5497V30.3841H72V27.9337Z" fill="black"/>
<path d="M10.7424 30.3841H8.29213V32.8344H10.7424V30.3841Z" fill="black"/>
<path d="M13.1927 30.3841H10.7424V32.8344H13.1927V30.3841Z" fill="black"/>
<path d="M15.643 30.3841H13.1927V32.8344H15.643V30.3841Z" fill="black"/>
<path d="M18.0933 30.3841H15.643V32.8344H18.0933V30.3841Z" fill="black"/>
<path d="M22.9939 30.3841H20.5436V32.8344H22.9939V30.3841Z" fill="black"/>
<path d="M25.4443 30.3841H22.9939V32.8344H25.4443V30.3841Z" fill="black"/>
<path d="M27.8946 30.3841H25.4443V32.8344H27.8946V30.3841Z" fill="black"/>
<path d="M30.3449 30.3841H27.8946V32.8344H30.3449V30.3841Z" fill="black"/>
<path d="M32.7952 30.3841H30.3449V32.8344H32.7952V30.3841Z" fill="black"/>
<path d="M35.2455 30.3841H32.7952V32.8344H35.2455V30.3841Z" fill="black"/>
<path d="M45.0467 30.3841H42.5964V32.8344H45.0467V30.3841Z" fill="black"/>
<path d="M47.497 30.3841H45.0467V32.8344H47.497V30.3841Z" fill="black"/>
<path d="M49.9473 30.3841H47.497V32.8344H49.9473V30.3841Z" fill="black"/>
<path d="M59.7485 30.3841H57.2982V32.8344H59.7485V30.3841Z" fill="black"/>
<path d="M62.1988 30.3841H59.7485V32.8344H62.1988V30.3841Z" fill="black"/>
<path d="M64.6491 30.3841H62.1988V32.8344H64.6491V30.3841Z" fill="black"/>
<path d="M69.5497 30.3841H67.0994V32.8344H69.5497V30.3841Z" fill="black"/>
<path d="M3.39153 32.8344H0.941223V35.2848H3.39153V32.8344Z" fill="black"/>
<path d="M5.84183 32.8344H3.39153V35.2848H5.84183V32.8344Z" fill="black"/>
<path d="M8.29213 32.8344H5.84183V35.2848H8.29213V32.8344Z" fill="black"/>
<path d="M25.4443 32.8344H22.9939V35.2848H25.4443V32.8344Z" fill="black"/>
<path d="M27.8946 32.8344H25.4443V35.2848H27.8946V32.8344Z" fill="black"/>
<path d="M30.3449 32.8344H27.8946V35.2848H30.3449V32.8344Z" fill="black"/>
<path d="M45.0467 32.8344H42.5964V35.2848H45.0467V32.8344Z" fill="black"/>
<path d="M47.497 32.8344H45.0467V35.2848H47.497V32.8344Z" fill="black"/>
<path d="M49.9473 32.8344H47.497V35.2848H49.9473V32.8344Z" fill="black"/>
<path d="M64.6491 32.8344H62.1988V35.2848H64.6491V32.8344Z" fill="black"/>
<path d="M72 32.8344H69.5497V35.2848H72V32.8344Z" fill="black"/>
<path d="M3.39153 35.2848H0.941223V37.7351H3.39153V35.2848Z" fill="black"/>
<path d="M5.84183 35.2848H3.39153V37.7351H5.84183V35.2848Z" fill="black"/>
<path d="M10.7424 35.2848H8.29213V37.7351H10.7424V35.2848Z" fill="black"/>
<path d="M18.0933 35.2848H15.643V37.7351H18.0933V35.2848Z" fill="black"/>
<path d="M20.5436 35.2848H18.0933V37.7351H20.5436V35.2848Z" fill="black"/>
<path d="M25.4443 35.2848H22.9939V37.7351H25.4443V35.2848Z" fill="black"/>
<path d="M27.8946 35.2848H25.4443V37.7351H27.8946V35.2848Z" fill="black"/>
<path d="M32.7952 35.2848H30.3449V37.7351H32.7952V35.2848Z" fill="black"/>
<path d="M40.1461 35.2848H37.6958V37.7351H40.1461V35.2848Z" fill="black"/>
<path d="M45.0467 35.2848H42.5964V37.7351H45.0467V35.2848Z" fill="black"/>
<path d="M47.497 35.2848H45.0467V37.7351H47.497V35.2848Z" fill="black"/>
<path d="M52.3976 35.2848H49.9473V37.7351H52.3976V35.2848Z" fill="black"/>
<path d="M59.7485 35.2848H57.2982V37.7351H59.7485V35.2848Z" fill="black"/>
<path d="M64.6491 35.2848H62.1988V37.7351H64.6491V35.2848Z" fill="black"/>
<path d="M69.5497 35.2848H67.0994V37.7351H69.5497V35.2848Z" fill="black"/>
<path d="M72 35.2848H69.5497V37.7351H72V35.2848Z" fill="black"/>
<path d="M3.39153 37.7351H0.941223V40.1855H3.39153V37.7351Z" fill="black"/>
<path d="M5.84183 37.7351H3.39153V40.1855H5.84183V37.7351Z" fill="black"/>
<path d="M8.29213 37.7351H5.84183V40.1855H8.29213V37.7351Z" fill="black"/>
<path d="M10.7424 37.7351H8.29213V40.1855H10.7424V37.7351Z" fill="black"/>
<path d="M13.1927 37.7351H10.7424V40.1855H13.1927V37.7351Z" fill="black"/>
<path d="M25.4443 37.7351H22.9939V40.1855H25.4443V37.7351Z" fill="black"/>
<path d="M27.8946 37.7351H25.4443V40.1855H27.8946V37.7351Z" fill="black"/>
<path d="M30.3449 37.7351H27.8946V40.1855H30.3449V37.7351Z" fill="black"/>
<path d="M32.7952 37.7351H30.3449V40.1855H32.7952V37.7351Z" fill="black"/>
<path d="M35.2455 37.7351H32.7952V40.1855H35.2455V37.7351Z" fill="black"/>
<path d="M45.0467 37.7351H42.5964V40.1855H45.0467V37.7351Z" fill="black"/>
<path d="M47.497 37.7351H45.0467V40.1855H47.497V37.7351Z" fill="black"/>
<path d="M49.9473 37.7351H47.497V40.1855H49.9473V37.7351Z" fill="black"/>
<path d="M52.3976 37.7351H49.9473V40.1855H52.3976V37.7351Z" fill="black"/>
<path d="M54.8479 37.7351H52.3976V40.1855H54.8479V37.7351Z" fill="black"/>
<path d="M64.6491 37.7351H62.1988V40.1855H64.6491V37.7351Z" fill="black"/>
<path d="M67.0994 37.7351H64.6491V40.1855H67.0994V37.7351Z" fill="black"/>
<path d="M69.5497 37.7351H67.0994V40.1855H69.5497V37.7351Z" fill="black"/>
<path d="M72 37.7351H69.5497V40.1855H72V37.7351Z" fill="black"/>
<path d="M5.84183 40.1855H3.39153V42.6358H5.84183V40.1855Z" fill="black"/>
<path d="M13.1927 40.1855H10.7424V42.6358H13.1927V40.1855Z" fill="black"/>
<path d="M18.0933 40.1855H15.643V42.6358H18.0933V40.1855Z" fill="black"/>
<path d="M20.5436 40.1855H18.0933V42.6358H20.5436V40.1855Z" fill="black"/>
<path d="M22.9939 40.1855H20.5436V42.6358H22.9939V40.1855Z" fill="black"/>
<path d="M27.8946 40.1855H25.4443V42.6358H27.8946V40.1855Z" fill="black"/>
<path d="M35.2455 40.1855H32.7952V42.6358H35.2455V40.1855Z" fill="black"/>
<path d="M40.1461 40.1855H37.6958V42.6358H40.1461V40.1855Z" fill="black"/>
<path d="M42.5964 40.1855H40.1461V42.6358H42.5964V40.1855Z" fill="black"/>
<path d="M47.497 40.1855H45.0467V42.6358H47.497V40.1855Z" fill="black"/>
<path d="M54.8479 40.1855H52.3976V42.6358H54.8479V40.1855Z" fill="black"/>
<path d="M59.7485 40.1855H57.2982V42.6358H59.7485V40.1855Z" fill="black"/>
<path d="M62.1988 40.1855H59.7485V42.6358H62.1988V40.1855Z" fill="black"/>
<path d="M67.0994 40.1855H64.6491V42.6358H67.0994V40.1855Z" fill="black"/>
<path d="M3.39153 42.6358H0.941223V45.0862H3.39153V42.6358Z" fill="black"/>
<path d="M5.84183 42.6358H3.39153V45.0862H5.84183V42.6358Z" fill="black"/>
<path d="M10.7424 42.6358H8.29213V45.0862H10.7424V42.6358Z" fill="black"/>
<path d="M13.1927 42.6358H10.7424V45.0862H13.1927V42.6358Z" fill="black"/>
<path d="M25.4443 42.6358H22.9939V45.0862H25.4443V42.6358Z" fill="black"/>
<path d="M27.8946 42.6358H25.4443V45.0862H27.8946V42.6358Z" fill="black"/>
<path d="M30.3449 42.6358H27.8946V45.0862H30.3449V42.6358Z" fill="black"/>
<path d="M45.0467 42.6358H42.5964V45.0862H45.0467V42.6358Z" fill="black"/>
<path d="M47.497 42.6358H45.0467V45.0862H47.497V42.6358Z" fill="black"/>
<path d="M49.9473 42.6358H47.497V45.0862H49.9473V42.6358Z" fill="black"/>
<path d="M64.6491 42.6358H62.1988V45.0862H64.6491V42.6358Z" fill="black"/>
<path d="M67.0994 42.6358H64.6491V45.0862H67.0994V42.6358Z" fill="black"/>
<path d="M69.5497 42.6358H67.0994V45.0862H69.5497V42.6358Z" fill="black"/>
<path d="M3.39153 45.0862H0.941223V47.5365H3.39153V45.0862Z" fill="black"/>
<path d="M13.1927 45.0862H10.7424V47.5365H13.1927V45.0862Z" fill="black"/>
<path d="M18.0933 45.0862H15.643V47.5365H18.0933V45.0862Z" fill="black"/>
<path d="M22.9939 45.0862H20.5436V47.5365H22.9939V45.0862Z" fill="black"/>
<path d="M25.4443 45.0862H22.9939V47.5365H25.4443V45.0862Z" fill="black"/>
<path d="M30.3449 45.0862H27.8946V47.5365H30.3449V45.0862Z" fill="black"/>
<path d="M35.2455 45.0862H32.7952V47.5365H35.2455V45.0862Z" fill="black"/>
<path d="M37.6958 45.0862H35.2455V47.5365H37.6958V45.0862Z" fill="black"/>
<path d="M42.5964 45.0862H40.1461V47.5365H42.5964V45.0862Z" fill="black"/>
<path d="M49.9473 45.0862H47.497V47.5365H49.9473V45.0862Z" fill="black"/>
<path d="M54.8479 45.0862H52.3976V47.5365H54.8479V45.0862Z" fill="black"/>
<path d="M57.2982 45.0862H54.8479V47.5365H57.2982V45.0862Z" fill="black"/>
<path d="M62.1988 45.0862H59.7485V47.5365H62.1988V45.0862Z" fill="black"/>
<path d="M69.5497 45.0862H67.0994V47.5365H69.5497V45.0862Z" fill="black"/>
<path d="M3.39153 47.5365H0.941223V49.9868H3.39153V47.5365Z" fill="black"/>
<path d="M8.29213 47.5365H5.84183V49.9868H8.29213V47.5365Z" fill="black"/>
<path d="M13.1927 47.5365H10.7424V49.9868H13.1927V47.5365Z" fill="black"/>
<path d="M20.5436 47.5365H18.0933V49.9868H20.5436V47.5365Z" fill="black"/>
<path d="M22.9939 47.5365H20.5436V49.9868H22.9939V47.5365Z" fill="black"/>
<path d="M25.4443 47.5365H22.9939V49.9868H25.4443V47.5365Z" fill="black"/>
<path d="M30.3449 47.5365H27.8946V49.9868H30.3449V47.5365Z" fill="black"/>
<path d="M35.2455 47.5365H32.7952V49.9868H35.2455V47.5365Z" fill="black"/>
<path d="M45.0467 47.5365H42.5964V49.9868H45.0467V47.5365Z" fill="black"/>
<path d="M52.3976 47.5365H49.9473V49.9868H52.3976V47.5365Z" fill="black"/>
<path d="M57.2982 47.5365H54.8479V49.9868H57.2982V47.5365Z" fill="black"/>
<path d="M59.7485 47.5365H57.2982V49.9868H59.7485V47.5365Z" fill="black"/>
<path d="M67.0994 47.5365H64.6491V49.9868H67.0994V47.5365Z" fill="black"/>
<path d="M72 47.5365H69.5497V49.9868H72V47.5365Z" fill="black"/>
<path d="M3.39153 49.9868H0.941223V52.4372H3.39153V49.9868Z" fill="black"/>
<path d="M5.84183 49.9868H3.39153V52.4372H5.84183V49.9868Z" fill="black"/>
<path d="M13.1927 49.9868H10.7424V52.4372H13.1927V49.9868Z" fill="black"/>
<path d="M18.0933 49.9868H15.643V52.4372H18.0933V49.9868Z" fill="black"/>
<path d="M20.5436 49.9868H18.0933V52.4372H20.5436V49.9868Z" fill="black"/>
<path d="M35.2455 49.9868H32.7952V52.4372H35.2455V49.9868Z" fill="black"/>
<path d="M37.6958 49.9868H35.2455V52.4372H37.6958V49.9868Z" fill="black"/>
<path d="M40.1461 49.9868H37.6958V52.4372H40.1461V49.9868Z" fill="black"/>
<path d="M42.5964 49.9868H40.1461V52.4372H42.5964V49.9868Z" fill="black"/>
<path d="M45.0467 49.9868H42.5964V52.4372H45.0467V49.9868Z" fill="black"/>
<path d="M52.3976 49.9868H49.9473V52.4372H52.3976V49.9868Z" fill="black"/>
<path d="M54.8479 49.9868H52.3976V52.4372H54.8479V49.9868Z" fill="black"/>
<path d="M57.2982 49.9868H54.8479V52.4372H57.2982V49.9868Z" fill="black"/>
<path d="M59.7485 49.9868H57.2982V52.4372H59.7485V49.9868Z" fill="black"/>
<path d="M62.1988 49.9868H59.7485V52.4372H62.1988V49.9868Z" fill="black"/>
<path d="M67.0994 49.9868H64.6491V52.4372H67.0994V49.9868Z" fill="black"/>
<path d="M69.5497 49.9868H67.0994V52.4372H69.5497V49.9868Z" fill="black"/>
<path d="M25.4443 52.4372H22.9939V54.8875H25.4443V52.4372Z" fill="black"/>
<path d="M30.3449 52.4372H27.8946V54.8875H30.3449V52.4372Z" fill="black"/>
<path d="M35.2455 52.4372H32.7952V54.8875H35.2455V52.4372Z" fill="black"/>
<path d="M37.6958 52.4372H35.2455V54.8875H37.6958V52.4372Z" fill="black"/>
<path d="M47.497 52.4372H45.0467V54.8875H47.497V52.4372Z" fill="black"/>
<path d="M49.9473 52.4372H47.497V54.8875H49.9473V52.4372Z" fill="black"/>
<path d="M52.3976 52.4372H49.9473V54.8875H52.3976V52.4372Z" fill="black"/>
<path d="M62.1988 52.4372H59.7485V54.8875H62.1988V52.4372Z" fill="black"/>
<path d="M67.0994 52.4372H64.6491V54.8875H67.0994V52.4372Z" fill="black"/>
<path d="M3.39153 54.8875H0.941223V57.3379H3.39153V54.8875Z" fill="black"/>
<path d="M5.84183 54.8875H3.39153V57.3379H5.84183V54.8875Z" fill="black"/>
<path d="M8.29213 54.8875H5.84183V57.3379H8.29213V54.8875Z" fill="black"/>
<path d="M10.7424 54.8875H8.29213V57.3379H10.7424V54.8875Z" fill="black"/>
<path d="M13.1927 54.8875H10.7424V57.3379H13.1927V54.8875Z" fill="black"/>
<path d="M15.643 54.8875H13.1927V57.3379H15.643V54.8875Z" fill="black"/>
<path d="M18.0933 54.8875H15.643V57.3379H18.0933V54.8875Z" fill="black"/>
<path d="M22.9939 54.8875H20.5436V57.3379H22.9939V54.8875Z" fill="black"/>
<path d="M25.4443 54.8875H22.9939V57.3379H25.4443V54.8875Z" fill="black"/>
<path d="M35.2455 54.8875H32.7952V57.3379H35.2455V54.8875Z" fill="black"/>
<path d="M45.0467 54.8875H42.5964V57.3379H45.0467V54.8875Z" fill="black"/>
<path d="M47.497 54.8875H45.0467V57.3379H47.497V54.8875Z" fill="black"/>
<path d="M49.9473 54.8875H47.497V57.3379H49.9473V54.8875Z" fill="black"/>
<path d="M52.3976 54.8875H49.9473V57.3379H52.3976V54.8875Z" fill="black"/>
<path d="M57.2982 54.8875H54.8479V57.3379H57.2982V54.8875Z" fill="black"/>
<path d="M62.1988 54.8875H59.7485V57.3379H62.1988V54.8875Z" fill="black"/>
<path d="M67.0994 54.8875H64.6491V57.3379H67.0994V54.8875Z" fill="black"/>
<path d="M69.5497 54.8875H67.0994V57.3379H69.5497V54.8875Z" fill="black"/>
<path d="M72 54.8875H69.5497V57.3379H72V54.8875Z" fill="black"/>
<path d="M3.39153 57.3379H0.941223V59.7882H3.39153V57.3379Z" fill="black"/>
<path d="M18.0933 57.3379H15.643V59.7882H18.0933V57.3379Z" fill="black"/>
<path d="M22.9939 57.3379H20.5436V59.7882H22.9939V57.3379Z" fill="black"/>
<path d="M25.4443 57.3379H22.9939V59.7882H25.4443V57.3379Z" fill="black"/>
<path d="M27.8946 57.3379H25.4443V59.7882H27.8946V57.3379Z" fill="black"/>
<path d="M35.2455 57.3379H32.7952V59.7882H35.2455V57.3379Z" fill="black"/>
<path d="M40.1461 57.3379H37.6958V59.7882H40.1461V57.3379Z" fill="black"/>
<path d="M49.9473 57.3379H47.497V59.7882H49.9473V57.3379Z" fill="black"/>
<path d="M52.3976 57.3379H49.9473V59.7882H52.3976V57.3379Z" fill="black"/>
<path d="M62.1988 57.3379H59.7485V59.7882H62.1988V57.3379Z" fill="black"/>
<path d="M67.0994 57.3379H64.6491V59.7882H67.0994V57.3379Z" fill="black"/>
<path d="M69.5497 57.3379H67.0994V59.7882H69.5497V57.3379Z" fill="black"/>
<path d="M72 57.3379H69.5497V59.7882H72V57.3379Z" fill="black"/>
<path d="M3.39153 59.7882H0.941223V62.2386H3.39153V59.7882Z" fill="black"/>
<path d="M8.29213 59.7882H5.84183V62.2386H8.29213V59.7882Z" fill="black"/>
<path d="M10.7424 59.7882H8.29213V62.2386H10.7424V59.7882Z" fill="black"/>
<path d="M13.1927 59.7882H10.7424V62.2386H13.1927V59.7882Z" fill="black"/>
<path d="M18.0933 59.7882H15.643V62.2386H18.0933V59.7882Z" fill="black"/>
<path d="M22.9939 59.7882H20.5436V62.2386H22.9939V59.7882Z" fill="black"/>
<path d="M25.4443 59.7882H22.9939V62.2386H25.4443V59.7882Z" fill="black"/>
<path d="M27.8946 59.7882H25.4443V62.2386H27.8946V59.7882Z" fill="black"/>
<path d="M30.3449 59.7882H27.8946V62.2386H30.3449V59.7882Z" fill="black"/>
<path d="M35.2455 59.7882H32.7952V62.2386H35.2455V59.7882Z" fill="black"/>
<path d="M45.0467 59.7882H42.5964V62.2386H45.0467V59.7882Z" fill="black"/>
<path d="M47.497 59.7882H45.0467V62.2386H47.497V59.7882Z" fill="black"/>
<path d="M52.3976 59.7882H49.9473V62.2386H52.3976V59.7882Z" fill="black"/>
<path d="M54.8479 59.7882H52.3976V62.2386H54.8479V59.7882Z" fill="black"/>
<path d="M57.2982 59.7882H54.8479V62.2386H57.2982V59.7882Z" fill="black"/>
<path d="M59.7485 59.7882H57.2982V62.2386H59.7485V59.7882Z" fill="black"/>
<path d="M62.1988 59.7882H59.7485V62.2386H62.1988V59.7882Z" fill="black"/>
<path d="M67.0994 59.7882H64.6491V62.2386H67.0994V59.7882Z" fill="black"/>
<path d="M69.5497 59.7882H67.0994V62.2386H69.5497V59.7882Z" fill="black"/>
<path d="M72 59.7882H69.5497V62.2386H72V59.7882Z" fill="black"/>
<path d="M3.39153 62.2386H0.941223V64.6889H3.39153V62.2386Z" fill="black"/>
<path d="M8.29213 62.2386H5.84183V64.6889H8.29213V62.2386Z" fill="black"/>
<path d="M10.7424 62.2386H8.29213V64.6889H10.7424V62.2386Z" fill="black"/>
<path d="M13.1927 62.2386H10.7424V64.6889H13.1927V62.2386Z" fill="black"/>
<path d="M18.0933 62.2386H15.643V64.6889H18.0933V62.2386Z" fill="black"/>
<path d="M22.9939 62.2386H20.5436V64.6889H22.9939V62.2386Z" fill="black"/>
<path d="M25.4443 62.2386H22.9939V64.6889H25.4443V62.2386Z" fill="black"/>
<path d="M30.3449 62.2386H27.8946V64.6889H30.3449V62.2386Z" fill="black"/>
<path d="M35.2455 62.2386H32.7952V64.6889H35.2455V62.2386Z" fill="black"/>
<path d="M40.1461 62.2386H37.6958V64.6889H40.1461V62.2386Z" fill="black"/>
<path d="M47.497 62.2386H45.0467V64.6889H47.497V62.2386Z" fill="black"/>
<path d="M49.9473 62.2386H47.497V64.6889H49.9473V62.2386Z" fill="black"/>
<path d="M54.8479 62.2386H52.3976V64.6889H54.8479V62.2386Z" fill="black"/>
<path d="M59.7485 62.2386H57.2982V64.6889H59.7485V62.2386Z" fill="black"/>
<path d="M67.0994 62.2386H64.6491V64.6889H67.0994V62.2386Z" fill="black"/>
<path d="M69.5497 62.2386H67.0994V64.6889H69.5497V62.2386Z" fill="black"/>
<path d="M3.39153 64.6889H0.941223V67.1393H3.39153V64.6889Z" fill="black"/>
<path d="M8.29213 64.6889H5.84183V67.1393H8.29213V64.6889Z" fill="black"/>
<path d="M10.7424 64.6889H8.29213V67.1393H10.7424V64.6889Z" fill="black"/>
<path d="M13.1927 64.6889H10.7424V67.1393H13.1927V64.6889Z" fill="black"/>
<path d="M18.0933 64.6889H15.643V67.1393H18.0933V64.6889Z" fill="black"/>
<path d="M22.9939 64.6889H20.5436V67.1393H22.9939V64.6889Z" fill="black"/>
<path d="M25.4443 64.6889H22.9939V67.1393H25.4443V64.6889Z" fill="black"/>
<path d="M27.8946 64.6889H25.4443V67.1393H27.8946V64.6889Z" fill="black"/>
<path d="M32.7952 64.6889H30.3449V67.1393H32.7952V64.6889Z" fill="black"/>
<path d="M42.5964 64.6889H40.1461V67.1393H42.5964V64.6889Z" fill="black"/>
<path d="M52.3976 64.6889H49.9473V67.1393H52.3976V64.6889Z" fill="black"/>
<path d="M54.8479 64.6889H52.3976V67.1393H54.8479V64.6889Z" fill="black"/>
<path d="M57.2982 64.6889H54.8479V67.1393H57.2982V64.6889Z" fill="black"/>
<path d="M62.1988 64.6889H59.7485V67.1393H62.1988V64.6889Z" fill="black"/>
<path d="M64.6491 64.6889H62.1988V67.1393H64.6491V64.6889Z" fill="black"/>
<path d="M72 64.6889H69.5497V67.1393H72V64.6889Z" fill="black"/>
<path d="M3.39153 67.1393H0.941223V69.5896H3.39153V67.1393Z" fill="black"/>
<path d="M18.0933 67.1393H15.643V69.5896H18.0933V67.1393Z" fill="black"/>
<path d="M25.4443 67.1393H22.9939V69.5896H25.4443V67.1393Z" fill="black"/>
<path d="M27.8946 67.1393H25.4443V69.5896H27.8946V67.1393Z" fill="black"/>
<path d="M59.7485 67.1393H57.2982V69.5896H59.7485V67.1393Z" fill="black"/>
<path d="M62.1988 67.1393H59.7485V69.5896H62.1988V67.1393Z" fill="black"/>
<path d="M67.0994 67.1393H64.6491V69.5896H67.0994V67.1393Z" fill="black"/>
<path d="M69.5497 67.1393H67.0994V69.5896H69.5497V67.1393Z" fill="black"/>
<path d="M3.39153 69.5896H0.941223V72.0399H3.39153V69.5896Z" fill="black"/>
<path d="M5.84183 69.5896H3.39153V72.0399H5.84183V69.5896Z" fill="black"/>
<path d="M8.29213 69.5896H5.84183V72.0399H8.29213V69.5896Z" fill="black"/>
<path d="M10.7424 69.5896H8.29213V72.0399H10.7424V69.5896Z" fill="black"/>
<path d="M13.1927 69.5896H10.7424V72.0399H13.1927V69.5896Z" fill="black"/>
<path d="M15.643 69.5896H13.1927V72.0399H15.643V69.5896Z" fill="black"/>
<path d="M18.0933 69.5896H15.643V72.0399H18.0933V69.5896Z" fill="black"/>
<path d="M25.4443 69.5896H22.9939V72.0399H25.4443V69.5896Z" fill="black"/>
<path d="M30.3449 69.5896H27.8946V72.0399H30.3449V69.5896Z" fill="black"/>
<path d="M35.2455 69.5896H32.7952V72.0399H35.2455V69.5896Z" fill="black"/>
<path d="M40.1461 69.5896H37.6958V72.0399H40.1461V69.5896Z" fill="black"/>
<path d="M45.0467 69.5896H42.5964V72.0399H45.0467V69.5896Z" fill="black"/>
<path d="M49.9473 69.5896H47.497V72.0399H49.9473V69.5896Z" fill="black"/>
<path d="M54.8479 69.5896H52.3976V72.0399H54.8479V69.5896Z" fill="black"/>
<path d="M62.1988 69.5896H59.7485V72.0399H62.1988V69.5896Z" fill="black"/>
</svg>
